# xmcd
#
# Track frame offsets:
#	150
#	19368
#	37824
#	60884
#	79231
#	97490
#	116141
#	130762
#	153488
#	168690
#	190617
#	207881
#	230745
#
# Disc length: 3358 seconds
#
# Revision: 2
# Processed by: cddbd v1.5.2PL0 Copyright (c) Steve Scherf et al.
# Submitted via: audiograbber 1.83.01
#
DISCID=b00d1c0d
DTITLE=Marcia Ball - Peace, Love and BBQ
DYEAR=2008
DGENRE=Blues
TTITLE0=Party Town
TTITLE1=Peace, Love and BBQ
TTITLE2=Miracle In Knoxville
TTITLE3=Watermelon Time
TTITLE4=Down In The Neighborhood
TTITLE5=Where Do You Go?
TTITLE6=My Heart And Soul
TTITLE7=I'll Never Be Free
TTITLE8=Married Life
TTITLE9=Falling Back In Love With You
TTITLE10=Right Back In It
TTITLE11=Ride It Out
TTITLE12=I Wish You Well
EXTD=
EXTT0=
EXTT1=
EXTT2=
EXTT3=
EXTT4=
EXTT5=
EXTT6=
EXTT7=
EXTT8=
EXTT9=
EXTT10=
EXTT11=
EXTT12=
PLAYORDER=
